# xmcd
#
# Track frame offsets: 
#        150
#        13190
#        25446
#        37403
#        50250
#        59154
#        70968
#        81079
#        92285
#        103880
#        117476
#        128939
#        138126
#        150016
#        161947
#        175099
#        183935
#        195354
#        206366
#        219296
#        233637
#        244487
#        255232
#        264526
#        273985
#        283359
#        292663
#        305809
#
# Disc length: 4203 seconds
#
# Revision: 0
# Processed by: cddbd v1.5.2PL0 Copyright (c) Steve Scherf et al.
# Submitted via: ExactAudioCopy v1.0b4
#
DISCID=9710691c
DTITLE=Tabby Thomas Meets Lonesome Sundown - Down In Louisiana
DYEAR=2017
DGENRE=Blues
TTITLE0=Thinking Blues - Tabby Thomas
TTITLE1=Church Member's Ball - Tabby Thomas
TTITLE2=Tomorrow - Tabby Thomas
TTITLE3=MMMMM I Don't Care - Tabby Thomas
TTITLE4=Don't Say - Tabby Thomas
TTITLE5=Too Late Blues - Tabby Thomas
TTITLE6=Brother Brown - Tabby Thomas
TTITLE7=So Hard To Bear - Tabby Thomas
TTITLE8=My Baby's Got It - Tabby Thomas
TTITLE9=Tomorrow I'll Be Gone - Tabby Thomas
TTITLE10=Hoodoo Party - Tabby Thomas
TTITLE11=Roll On Ole Mule - Tabby Thomas
TTITLE12=C.C. Rider - Tabby Thomas
TTITLE13=I'd Love To Tell - Tabby Thomas
TTITLE14='Popeye' Train - Tabby Thomas
TTITLE15=He's Got The Whole World In His Hands - Tabby Thomas
TTITLE16=Boogie Woogie Children - Tabby Thomas
TTITLE17=Roll On Mule - Tabby Thomas (Alt Take)
TTITLE18=Leave My Money Alone - Lonesome Sundown
TTITLE19=My Home Is A Prison - Lonesome Sundown
TTITLE20=I'm A Mojo Man - Lonesome Sundown
TTITLE21=Don't Go - Lonesome Sundown
TTITLE22=You Know I Love You - Lonesome Sundown
TTITLE23=Gonna Stick To You Baby - Lonesome Sundown
TTITLE24=Learn To Treat Me Better - Lonesome Sundown
TTITLE25=My Home Ain't Here - Lonesome Sundown
TTITLE26=Lonesome Lonely Blues - Lonesome Sundown
TTITLE27=I'm Glad She's Mine - Lonesome Sundown
EXTD=
EXTT0=
EXTT1=
EXTT2=
EXTT3=
EXTT4=
EXTT5=
EXTT6=
EXTT7=
EXTT8=
EXTT9=
EXTT10=
EXTT11=
EXTT12=
EXTT13=
EXTT14=
EXTT15=
EXTT16=
EXTT17=
EXTT18=
EXTT19=
EXTT20=
EXTT21=
EXTT22=
EXTT23=
EXTT24=
EXTT25=
EXTT26=
EXTT27=
PLAYORDER=
